<?xml version="1.0" encoding="utf-8"?>
<!-- Generator: Adobe Illustrator 17.1.0, SVG Export Plug-In . SVG Version: 6.00 Build 0)  -->
<!DOCTYPE svg PUBLIC "-//W3C//DTD SVG 1.1//EN" "http://www.w3.org/Graphics/SVG/1.1/DTD/svg11.dtd">
<svg version="1.1" id="Layer_1" xmlns="http://www.w3.org/2000/svg" xmlns:xlink="http://www.w3.org/1999/xlink" x="0px" y="0px"
	 width="300px" height="300px" viewBox="0 0 300 300" enable-background="new 0 0 300 300" xml:space="preserve">
<g>
	<path fill="#F9A11B" d="M259.8,62.5c-1.4-9.5-7.2-19-15-24.8c-6.6-4.9-11.2-5.9-16.6-7.2c-0.7-0.2-1.5-0.3-2.2-0.5
		c-3.6-0.8-11.7-2.8-19.6-4.8c-6-1.5-12-3-16.3-4c-1.9-0.5-3.6-0.9-5-1.2c-6.1-1.5-8.8-2.2-15-3.2c-7.6-1.2-19.5-1.4-20-1.4H150
		c-5.7,0-18.4,0.5-26,2.3c-6.5,1.6-13.7,3.3-17,4.2c-1.3,0.3-7,1.7-13.6,3.4c-9.5,2.4-21.3,5.3-25.3,6.3
		c-7.4,1.8-13.7,5.7-18.7,11.5c-4,4.6-8.9,12.7-9.5,20.2c-0.4,4.7-0.2,7.5-0.1,9.8c0,0.6,0.1,1.3,0.1,1.9c0.1,3,1.6,35.1,1.7,37.6
		c0.2,3.5,1.5,31,1.5,32.9c0,1.3,0.4,9.8,1.1,22.6c0.3,5.9,0.6,11.5,0.7,13.3c0.1,1.7,0.2,4.5,0.3,7.8c0.3,6.1,0.6,13.7,0.8,18
		c0.3,6.7,0.6,9,1.3,12.3c2.2,10.4,7.3,17.7,11.9,23.7c4.9,6.4,11.9,10.9,15.2,12.6c1.4,0.7,5.3,2.6,9.1,4.4c3.3,1.6,6.6,3.2,8,3.8
		c3,1.5,25.9,12.6,29.5,14.2c0.4,0.2,0.8,0.4,1.2,0.6c3,1.4,5.9,2.8,11.5,4c5.4,1.2,10.6,1.8,16.3,1.8c5,0,10.4-0.6,15.6-1.7
		c5.4-1.2,9.3-2.9,12.8-4.5c1.7-0.8,4.4-2.2,7.1-3.5c2.2-1.1,4.3-2.1,5.3-2.6c2.2-1,26.7-12.8,33.2-16c6.8-3.3,10.5-6.7,12.8-9
		c6.5-6.7,14.7-17.8,16.5-31.9v-0.2c0.3-2.3,0.4-5.8,0.5-8.3c0-0.5,0-1,0-1.4c0-1.1,0.4-9,0.8-16.6c0.4-8,0.8-16.2,0.8-17.8
		c0-1,0.2-3.7,0.3-7.1c0.4-7.8,0.9-18.6,1-22.6c0.1-3.3,0.5-11.5,0.9-18.8c0.3-5.2,0.5-9.7,0.6-12c0.2-5.6,1.1-23.9,1.3-27.5
		C260.5,67.7,260.5,66.8,259.8,62.5z"/>
	<path d="M150,20.3c0,0,11.9,0.2,19.3,1.3c7.4,1.2,9.5,1.9,19.6,4.4s29.6,7.4,35.9,8.9c6.3,1.5,10.5,2,17,6.9
		c6.5,4.8,11.8,13.2,13.1,21.5c0.5,3.6,0.6,4.1-0.3,19.6c-0.2,3.6-1.1,22-1.3,27.6s-1.4,25.2-1.5,30.9c-0.1,5.8-1.2,26.4-1.4,29.6
		c-0.1,3.1-1.5,32.2-1.6,34.4s-0.2,6.7-0.5,9.2s-1.7,15.4-15.2,29.3c-1.7,1.7-5,4.9-11.4,8c-6.3,3.1-31,14.9-33.2,16
		c-2.2,1-9.4,4.6-12.4,6.1c-3.1,1.5-6.6,3.1-11.7,4.1c-5.1,1.1-10,1.6-14.5,1.6s-9.4-0.4-15.2-1.7c-5.8-1.3-8.2-2.7-11.7-4.3
		S96.6,261,93.6,259.5c-2.9-1.5-14.5-6.9-17.1-8.2s-9-5.4-13.5-11.2s-9-12.4-11-21.7c-0.6-2.9-0.9-4.9-1.2-11.5s-0.7-20.8-0.9-25.7
		c-0.2-4.9-1.7-33.6-1.7-35.7s-1.3-30.3-1.5-33.2c-0.2-2.9-1.7-34.6-1.7-37.5c0-2.9-0.5-5.5,0-11.1c0.5-5.6,4.1-12.6,8.2-17.4
		s9.5-8.3,16.2-10c6.7-1.7,35.8-8.9,38.9-9.7s10-2.5,16.9-4.1C132,20.8,143.9,20.3,150,20.3z"/>
	<polygon fill="#F9A11B" points="151.2,60.7 171.5,40.4 241.3,110.1 220.9,130.5 	"/>
	<polygon fill="#F9A11B" points="148.7,60.7 128.4,40.4 58.7,110.1 79,130.5 	"/>
	<polygon fill="#F9A11B" points="220.9,132.9 241.3,153.2 171.5,223 151.2,202.6 	"/>
	<polygon fill="#F9A11B" points="148.8,202.6 128.4,223.1 58.7,153.3 79,132.9 	"/>
	<polygon fill="#F9A11B" points="150.9,204.7 171.5,225.4 219.2,177.8 219.2,190.8 150.9,259.1 	"/>
	<polygon fill="#F9A11B" points="149.1,204.7 149.2,259.1 80.7,190.5 80.7,177.8 128.4,225.4 	"/>
	<g>
		<path fill="#FFFFFF" d="M124.2,131.4c0-4.1,1-7.6,3-10.6c2-2.9,4.8-5.1,8.3-6.6c3.2-1.4,7.2-2.4,11.9-3c1.6-0.2,4.2-0.4,7.9-0.7
			V109c0-3.8-0.4-6.4-1.3-7.7c-1.3-1.8-3.2-2.7-5.9-2.7h-0.7c-2,0.2-3.7,0.8-5.1,1.9c-1.4,1.1-2.4,2.6-2.8,4.5
			c-0.2,1.2-0.8,1.9-1.8,2.1l-10.3-1.2c-1-0.2-1.5-0.8-1.5-1.6c0-0.2,0-0.4,0.1-0.6c1-5.3,3.5-9.3,7.5-11.8c4-2.6,8.6-4,13.9-4.3
			h2.2c6.8,0,12.1,1.8,15.9,5.3c0.6,0.6,1.2,1.2,1.7,1.9c0.5,0.7,0.9,1.3,1.2,1.8s0.6,1.3,0.8,2.3c0.2,1,0.4,1.7,0.5,2.1
			c0.1,0.4,0.2,1.2,0.3,2.5c0.1,1.3,0.1,2,0.1,2.3v21.7c0,1.6,0.2,3,0.7,4.3c0.4,1.3,0.9,2.2,1.3,2.8c0.4,0.6,1.1,1.5,2.1,2.7
			c0.4,0.5,0.5,1,0.5,1.4c0,0.5-0.2,0.9-0.7,1.3c-5,4.3-7.6,6.6-8.1,7c-0.7,0.5-1.6,0.6-2.6,0.2c-0.8-0.7-1.6-1.4-2.2-2.1
			c-0.6-0.7-1.1-1.1-1.3-1.4c-0.3-0.3-0.7-0.9-1.3-1.7c-0.6-0.9-1-1.4-1.3-1.7c-3.3,3.6-6.6,5.9-9.9,6.8c-2,0.6-4.5,0.9-7.5,0.9
			c-4.6,0-8.4-1.4-11.3-4.3C125.7,140.6,124.2,136.6,124.2,131.4z M139.6,129.6c0,2.3,0.6,4.2,1.7,5.6c1.2,1.4,2.7,2.1,4.7,2.1
			c0.2,0,0.4,0,0.8-0.1c0.4-0.1,0.6-0.1,0.7-0.1c2.5-0.7,4.5-2.3,5.8-4.8c0.7-1.1,1.2-2.4,1.5-3.7c0.3-1.3,0.5-2.4,0.5-3.3
			c0-0.8,0-2.2,0-4.1V119c-3.5,0-6.1,0.2-7.9,0.7C142.2,121.2,139.6,124.5,139.6,129.6z"/>
		<g>
			<g>
				<path fill="#FFFFFF" d="M111.3,148.6c0.2-0.5,0.6-0.5,1.1-0.1c11.4,8.2,23.7,12.3,37.1,12.3c8.9,0,17.7-2.1,26.4-6.2
					c0.2-0.1,0.6-0.3,1-0.5s0.7-0.4,0.9-0.5c0.7-0.3,1.2-0.2,1.6,0.5c0.4,0.7,0.3,1.3-0.4,1.9c-0.8,0.7-1.9,1.6-3.1,2.6
					c-3.9,2.9-8.3,5.1-13.1,6.7c-4.8,1.6-9.5,2.4-14.1,2.4c-7.1,0-13.8-1.5-20.1-4.6s-12-7.4-17-13.1c-0.3-0.3-0.4-0.6-0.4-0.8
					C111.2,148.9,111.3,148.7,111.3,148.6z"/>
			</g>
			<path fill="#FFFFFF" d="M173.6,151.1c0,0,4.2-0.7,6.8-0.3c2.6,0.4,2.4,1.4,2,3.6s-1.7,5.2-2,5.9c-0.3,0.8-0.4,1.1-0.3,1.4
				c0.2,0.2,0.8,0.3,1.9-1c1.1-1.3,2.8-3.4,3.6-6.9s0.6-4.8-0.1-5.2s-5.7-1.7-11.1,0.3c-0.8,0.3-2.7,1.2-2.7,1.9
				S173.1,151.1,173.6,151.1z"/>
		</g>
	</g>
</g>
</svg>
